<mxfile host="Electron" agent="Mozilla/5.0 (Macintosh; Intel Mac OS X 10_15_7) AppleWebKit/537.36 (KHTML, like Gecko) draw.io/28.0.6 Chrome/138.0.7204.100 Electron/37.2.3 Safari/537.36" version="28.0.6">
  <diagram name="Page-1" id="8zKtjM56-HJ-h7Rj1cjl">
    <mxGraphModel dx="1234" dy="912" grid="1" gridSize="10" guides="1" tooltips="1" connect="1" arrows="1" fold="1" page="1" pageScale="1" pageWidth="827" pageHeight="1169" math="0" shadow="0">
      <root>
        <mxCell id="0" />
        <mxCell id="1" parent="0" />
        <mxCell id="8BaljNrCK6FUAkiLZv4w-3" value="" style="edgeStyle=orthogonalEdgeStyle;rounded=0;orthogonalLoop=1;jettySize=auto;html=1;" edge="1" parent="1" source="8BaljNrCK6FUAkiLZv4w-1" target="8BaljNrCK6FUAkiLZv4w-2">
          <mxGeometry relative="1" as="geometry" />
        </mxCell>
        <mxCell id="8BaljNrCK6FUAkiLZv4w-4" value="Supports" style="edgeLabel;html=1;align=center;verticalAlign=middle;resizable=0;points=[];" vertex="1" connectable="0" parent="8BaljNrCK6FUAkiLZv4w-3">
          <mxGeometry x="-0.225" y="-2" relative="1" as="geometry">
            <mxPoint as="offset" />
          </mxGeometry>
        </mxCell>
        <mxCell id="8BaljNrCK6FUAkiLZv4w-26" style="edgeStyle=orthogonalEdgeStyle;rounded=0;orthogonalLoop=1;jettySize=auto;html=1;exitX=0;exitY=0.5;exitDx=0;exitDy=0;entryX=1;entryY=0.5;entryDx=0;entryDy=0;" edge="1" parent="1" source="8BaljNrCK6FUAkiLZv4w-1" target="8BaljNrCK6FUAkiLZv4w-22">
          <mxGeometry relative="1" as="geometry" />
        </mxCell>
        <mxCell id="8BaljNrCK6FUAkiLZv4w-27" style="edgeStyle=orthogonalEdgeStyle;rounded=0;orthogonalLoop=1;jettySize=auto;html=1;exitX=0;exitY=0.5;exitDx=0;exitDy=0;entryX=1;entryY=0.5;entryDx=0;entryDy=0;" edge="1" parent="1" source="8BaljNrCK6FUAkiLZv4w-1" target="8BaljNrCK6FUAkiLZv4w-24">
          <mxGeometry relative="1" as="geometry" />
        </mxCell>
        <mxCell id="8BaljNrCK6FUAkiLZv4w-1" value="Lakehouse Monitoring" style="ellipse;whiteSpace=wrap;html=1;" vertex="1" parent="1">
          <mxGeometry x="350" y="430" width="120" height="80" as="geometry" />
        </mxCell>
        <mxCell id="8BaljNrCK6FUAkiLZv4w-6" value="" style="edgeStyle=orthogonalEdgeStyle;rounded=0;orthogonalLoop=1;jettySize=auto;html=1;" edge="1" parent="1" source="8BaljNrCK6FUAkiLZv4w-2" target="8BaljNrCK6FUAkiLZv4w-5">
          <mxGeometry relative="1" as="geometry" />
        </mxCell>
        <mxCell id="8BaljNrCK6FUAkiLZv4w-11" style="edgeStyle=orthogonalEdgeStyle;rounded=0;orthogonalLoop=1;jettySize=auto;html=1;entryX=0;entryY=0.5;entryDx=0;entryDy=0;exitX=1;exitY=0.5;exitDx=0;exitDy=0;" edge="1" parent="1" source="8BaljNrCK6FUAkiLZv4w-2" target="8BaljNrCK6FUAkiLZv4w-9">
          <mxGeometry relative="1" as="geometry">
            <mxPoint x="730" y="380" as="sourcePoint" />
          </mxGeometry>
        </mxCell>
        <mxCell id="8BaljNrCK6FUAkiLZv4w-12" style="edgeStyle=orthogonalEdgeStyle;rounded=0;orthogonalLoop=1;jettySize=auto;html=1;exitX=1;exitY=0.5;exitDx=0;exitDy=0;entryX=0;entryY=0.5;entryDx=0;entryDy=0;" edge="1" parent="1" source="8BaljNrCK6FUAkiLZv4w-2" target="8BaljNrCK6FUAkiLZv4w-7">
          <mxGeometry relative="1" as="geometry" />
        </mxCell>
        <mxCell id="8BaljNrCK6FUAkiLZv4w-2" value="Table types" style="ellipse;whiteSpace=wrap;html=1;" vertex="1" parent="1">
          <mxGeometry x="550" y="430" width="120" height="80" as="geometry" />
        </mxCell>
        <mxCell id="8BaljNrCK6FUAkiLZv4w-5" value="Delta tables&lt;div&gt;(managed + external)&lt;/div&gt;" style="ellipse;whiteSpace=wrap;html=1;" vertex="1" parent="1">
          <mxGeometry x="750" y="430" width="120" height="80" as="geometry" />
        </mxCell>
        <mxCell id="8BaljNrCK6FUAkiLZv4w-7" value="Views&lt;div&gt;and materialized vw&lt;/div&gt;" style="ellipse;whiteSpace=wrap;html=1;" vertex="1" parent="1">
          <mxGeometry x="750" y="320" width="120" height="80" as="geometry" />
        </mxCell>
        <mxCell id="8BaljNrCK6FUAkiLZv4w-9" value="Streaming tables" style="ellipse;whiteSpace=wrap;html=1;" vertex="1" parent="1">
          <mxGeometry x="750" y="540" width="120" height="80" as="geometry" />
        </mxCell>
        <mxCell id="8BaljNrCK6FUAkiLZv4w-30" style="edgeStyle=orthogonalEdgeStyle;rounded=0;orthogonalLoop=1;jettySize=auto;html=1;exitX=1;exitY=0.5;exitDx=0;exitDy=0;entryX=0;entryY=0.5;entryDx=0;entryDy=0;" edge="1" parent="1" source="8BaljNrCK6FUAkiLZv4w-16" target="8BaljNrCK6FUAkiLZv4w-28">
          <mxGeometry relative="1" as="geometry" />
        </mxCell>
        <mxCell id="8BaljNrCK6FUAkiLZv4w-31" value="May reference a" style="edgeLabel;html=1;align=center;verticalAlign=middle;resizable=0;points=[];" vertex="1" connectable="0" parent="8BaljNrCK6FUAkiLZv4w-30">
          <mxGeometry x="-0.0917" y="-3" relative="1" as="geometry">
            <mxPoint y="-19" as="offset" />
          </mxGeometry>
        </mxCell>
        <mxCell id="8BaljNrCK6FUAkiLZv4w-34" value="" style="edgeStyle=orthogonalEdgeStyle;rounded=0;orthogonalLoop=1;jettySize=auto;html=1;" edge="1" parent="1" source="8BaljNrCK6FUAkiLZv4w-16" target="8BaljNrCK6FUAkiLZv4w-33">
          <mxGeometry relative="1" as="geometry" />
        </mxCell>
        <mxCell id="8BaljNrCK6FUAkiLZv4w-37" style="edgeStyle=orthogonalEdgeStyle;rounded=0;orthogonalLoop=1;jettySize=auto;html=1;exitX=0;exitY=0.5;exitDx=0;exitDy=0;entryX=1;entryY=0.5;entryDx=0;entryDy=0;" edge="1" parent="1" source="8BaljNrCK6FUAkiLZv4w-16" target="8BaljNrCK6FUAkiLZv4w-35">
          <mxGeometry relative="1" as="geometry" />
        </mxCell>
        <mxCell id="8BaljNrCK6FUAkiLZv4w-38" value="Creates" style="edgeLabel;html=1;align=center;verticalAlign=middle;resizable=0;points=[];" vertex="1" connectable="0" parent="8BaljNrCK6FUAkiLZv4w-37">
          <mxGeometry x="-0.7583" y="-2" relative="1" as="geometry">
            <mxPoint as="offset" />
          </mxGeometry>
        </mxCell>
        <mxCell id="8BaljNrCK6FUAkiLZv4w-41" style="edgeStyle=orthogonalEdgeStyle;rounded=0;orthogonalLoop=1;jettySize=auto;html=1;exitX=0;exitY=0.5;exitDx=0;exitDy=0;entryX=1;entryY=0.5;entryDx=0;entryDy=0;" edge="1" parent="1" source="8BaljNrCK6FUAkiLZv4w-16" target="8BaljNrCK6FUAkiLZv4w-39">
          <mxGeometry relative="1" as="geometry" />
        </mxCell>
        <mxCell id="8BaljNrCK6FUAkiLZv4w-16" value="Monitor" style="ellipse;whiteSpace=wrap;html=1;" vertex="1" parent="1">
          <mxGeometry x="350" y="750" width="120" height="80" as="geometry" />
        </mxCell>
        <mxCell id="8BaljNrCK6FUAkiLZv4w-18" value="Table&lt;div&gt;(primary table)&lt;/div&gt;" style="ellipse;whiteSpace=wrap;html=1;" vertex="1" parent="1">
          <mxGeometry x="550" y="750" width="120" height="80" as="geometry" />
        </mxCell>
        <mxCell id="8BaljNrCK6FUAkiLZv4w-20" value="Time Series" style="ellipse;whiteSpace=wrap;html=1;" vertex="1" parent="1">
          <mxGeometry x="90" y="430" width="120" height="80" as="geometry" />
        </mxCell>
        <mxCell id="8BaljNrCK6FUAkiLZv4w-22" value="Inference" style="ellipse;whiteSpace=wrap;html=1;" vertex="1" parent="1">
          <mxGeometry x="90" y="320" width="120" height="80" as="geometry" />
        </mxCell>
        <mxCell id="8BaljNrCK6FUAkiLZv4w-24" value="Snapshot" style="ellipse;whiteSpace=wrap;html=1;" vertex="1" parent="1">
          <mxGeometry x="90" y="540" width="120" height="80" as="geometry" />
        </mxCell>
        <mxCell id="8BaljNrCK6FUAkiLZv4w-21" value="Types of analysis" style="edgeStyle=orthogonalEdgeStyle;rounded=0;orthogonalLoop=1;jettySize=auto;html=1;" edge="1" parent="1" source="8BaljNrCK6FUAkiLZv4w-1" target="8BaljNrCK6FUAkiLZv4w-20">
          <mxGeometry relative="1" as="geometry" />
        </mxCell>
        <mxCell id="8BaljNrCK6FUAkiLZv4w-32" value="Should match the schema of" style="edgeStyle=orthogonalEdgeStyle;rounded=0;orthogonalLoop=1;jettySize=auto;html=1;exitX=0.5;exitY=0;exitDx=0;exitDy=0;entryX=0.5;entryY=1;entryDx=0;entryDy=0;" edge="1" parent="1" source="8BaljNrCK6FUAkiLZv4w-28" target="8BaljNrCK6FUAkiLZv4w-18">
          <mxGeometry relative="1" as="geometry" />
        </mxCell>
        <mxCell id="8BaljNrCK6FUAkiLZv4w-28" value="Baseline table" style="ellipse;whiteSpace=wrap;html=1;" vertex="1" parent="1">
          <mxGeometry x="550" y="910" width="120" height="80" as="geometry" />
        </mxCell>
        <mxCell id="8BaljNrCK6FUAkiLZv4w-19" value="Is attached to" style="edgeStyle=orthogonalEdgeStyle;rounded=0;orthogonalLoop=1;jettySize=auto;html=1;" edge="1" parent="1" source="8BaljNrCK6FUAkiLZv4w-16" target="8BaljNrCK6FUAkiLZv4w-18">
          <mxGeometry relative="1" as="geometry" />
        </mxCell>
        <mxCell id="8BaljNrCK6FUAkiLZv4w-33" value="Profile metric table" style="ellipse;whiteSpace=wrap;html=1;" vertex="1" parent="1">
          <mxGeometry x="150" y="750" width="120" height="80" as="geometry" />
        </mxCell>
        <mxCell id="8BaljNrCK6FUAkiLZv4w-35" value="Drift metric table" style="ellipse;whiteSpace=wrap;html=1;" vertex="1" parent="1">
          <mxGeometry x="150" y="860" width="120" height="80" as="geometry" />
        </mxCell>
        <mxCell id="8BaljNrCK6FUAkiLZv4w-39" value="Dashboard" style="ellipse;whiteSpace=wrap;html=1;" vertex="1" parent="1">
          <mxGeometry x="150" y="640" width="120" height="80" as="geometry" />
        </mxCell>
      </root>
    </mxGraphModel>
  </diagram>
</mxfile>
